<svg xmlns="http://www.w3.org/2000/svg" version="1.1" xmlns:xlink="http://www.w3.org/1999/xlink" width="512" height="512" x="0" y="0" viewBox="0 0 68 68" style="enable-background:new 0 0 512 512" xml:space="preserve" class=""><g><path fill="#a5b2ff" d="M33.79 54.761h30.001a2 2 0 0 0 2-2v-35.58c0-1.1-.9-2-2-2h-30z" opacity="1" data-original="#a5b2ff" class=""></path><path fill="#8f9fff" d="M63.791 15.181h-1.776v25.154c0 6.038-4.895 10.933-10.933 10.933H33.791v3.493h30a2 2 0 0 0 2-2v-35.58c0-1.1-.9-2-2-2z" opacity="1" data-original="#8f9fff"></path><path fill="#a5b2ff" d="M33.79 54.761H4.21a2 2 0 0 1-2-2v-35.58c0-1.1.9-2 2-2H33.79z" opacity="1" data-original="#a5b2ff" class=""></path><path fill="#8f9fff" d="M33.791 15.181v39.58H4.211a2 2 0 0 1-2-2v-.53h21.954a6.356 6.356 0 0 0 6.356-6.356V15.18z" opacity="1" data-original="#8f9fff"></path><path fill="#2a44e2" d="M63.791 55.511h-30a.75.75 0 0 1-.75-.75v-39.58a.75.75 0 0 1 .75-.75h30a2.753 2.753 0 0 1 2.75 2.75v35.58a2.753 2.753 0 0 1-2.75 2.75zm-29.25-1.5h29.25c.69 0 1.25-.56 1.25-1.25v-35.58c0-.69-.56-1.25-1.25-1.25h-29.25z" opacity="1" data-original="#2a44e2" class=""></path><path fill="#2a44e2" d="M33.791 55.511H4.209a2.753 2.753 0 0 1-2.75-2.75v-35.58a2.753 2.753 0 0 1 2.75-2.75h29.582a.75.75 0 0 1 .75.75v39.58a.75.75 0 0 1-.75.75zM4.209 15.931c-.69 0-1.25.56-1.25 1.25v35.58c0 .69.56 1.25 1.25 1.25h28.832v-38.08z" opacity="1" data-original="#2a44e2" class=""></path><path fill="#7f8fee" d="M53.241 46.032v12.682a.45.45 0 0 1-.697.378l-3.753-2.455-3.753 2.455a.45.45 0 0 1-.697-.378V46.032z" opacity="1" data-original="#7f8fee"></path><path fill="#5569e8" d="M51.089 46.032V58.14l1.455.951a.45.45 0 0 0 .697-.377V46.032z" opacity="1" data-original="#5569e8"></path><path fill="#2a44e2" d="M44.791 59.915a1.198 1.198 0 0 1-1.2-1.2V46.031a.75.75 0 0 1 .75-.75h8.9a.75.75 0 0 1 .75.75v12.682a1.2 1.2 0 0 1-1.858 1.005l-3.342-2.185-3.342 2.185c-.2.13-.428.196-.657.196zm4-4.028c.143 0 .286.041.41.122l3.29 2.151V46.782h-7.4V58.16l3.29-2.15a.754.754 0 0 1 .41-.123z" opacity="1" data-original="#2a44e2" class=""></path><path fill="#ffffff" d="M61.251 12.401v35.35c0 1.35-1.31 2.31-2.59 1.9-7.9-2.51-17.38-1.44-24.87 5.11V15.18c7.9-6.91 18.02-7.72 26.15-4.67.79.3 1.31 1.05 1.31 1.89z" opacity="1" data-original="#ffffff" class=""></path><path fill="#e9ecff" d="M61.251 12.401v35.35c0 1.35-1.31 2.31-2.59 1.9-7.9-2.51-17.38-1.44-24.87 5.11v-4.84c7.05-4.88 15.41-5.51 22.5-3.26 1.28.41 2.59-.55 2.59-1.9V10.13c.36.12.71.25 1.06.38.79.3 1.31 1.05 1.31 1.89z" opacity="1" data-original="#e9ecff"></path><path fill="#ffffff" d="M33.791 15.181v39.58c-7.49-6.55-16.97-7.62-24.87-5.11-1.28.41-2.6-.55-2.6-1.9v-35.35c0-.84.53-1.59 1.32-1.89 8.13-3.05 18.25-2.24 26.15 4.67z" opacity="1" data-original="#ffffff" class=""></path><path fill="#e9ecff" d="M33.791 15.181v39.58c-7.49-6.55-16.97-7.62-24.87-5.11-1.28.41-2.6-.55-2.6-1.9v-2.01c.08-.01.16-.03.23-.06 5.53-1.757 11.834-1.76 17.688.643 3.42 1.404 7.182-.978 7.182-4.675V13.331c.81.56 1.6 1.18 2.37 1.85z" opacity="1" data-original="#e9ecff"></path><path fill="#2a44e2" d="M33.791 55.511a.752.752 0 0 1-.75-.75v-39.58c0-.217.093-.422.256-.564C40.652 8.184 50.96 6.34 60.205 9.809A2.79 2.79 0 0 1 62 12.4v35.35c0 .888-.41 1.697-1.127 2.219a2.708 2.708 0 0 1-2.442.395c-8.483-2.695-17.512-.84-24.147 4.96a.748.748 0 0 1-.494.186zm.75-39.986v37.647c6.894-5.337 15.876-6.929 24.347-4.236.38.121.781.057 1.102-.178.325-.237.511-.604.511-1.007v-35.35c0-.532-.324-.998-.826-1.189-8.746-3.28-18.118-1.668-25.134 4.313z" opacity="1" data-original="#2a44e2" class=""></path><path fill="#2a44e2" d="M39.54 43.792a.75.75 0 0 1-.33-1.424c4.793-2.33 10.166-3.125 15.548-2.296a.75.75 0 0 1 .627.855.757.757 0 0 1-.856.627c-5.076-.783-10.146-.033-14.662 2.163a.757.757 0 0 1-.328.075zM39.54 35.896a.75.75 0 0 1-.33-1.425 25.867 25.867 0 0 1 8.491-2.45.75.75 0 1 1 .165 1.491 24.405 24.405 0 0 0-8 2.309.757.757 0 0 1-.327.075zM54.645 33.667a.78.78 0 0 1-.116-.008 25.49 25.49 0 0 0-3.304-.292.751.751 0 0 1-.733-.768.759.759 0 0 1 .767-.732c1.167.027 2.344.13 3.5.31a.75.75 0 0 1-.114 1.49zM39.54 28a.75.75 0 0 1-.33-1.424c4.791-2.329 10.166-3.124 15.548-2.296a.75.75 0 1 1-.229 1.482c-5.077-.782-10.147-.034-14.662 2.163a.755.755 0 0 1-.328.075zM39.54 20.104a.75.75 0 0 1-.33-1.425 25.91 25.91 0 0 1 4.882-1.791.75.75 0 1 1 .372 1.453c-1.583.406-3.13.974-4.597 1.688a.757.757 0 0 1-.328.075zM54.645 17.874a.768.768 0 0 1-.116-.008 25.363 25.363 0 0 0-5.464-.25.758.758 0 0 1-.795-.702.75.75 0 0 1 .702-.796c1.925-.117 3.87-.029 5.786.265a.75.75 0 0 1-.113 1.491zM33.791 55.511a.748.748 0 0 1-.494-.185c-6.635-5.803-15.663-7.659-24.149-4.96a2.71 2.71 0 0 1-2.45-.4 2.715 2.715 0 0 1-1.127-2.215v-35.35c0-1.14.725-2.182 1.804-2.591 9.246-3.469 19.556-1.626 26.91 4.807a.749.749 0 0 1 .256.564v39.58a.749.749 0 0 1-.75.75zM16.917 47.65a26.257 26.257 0 0 1 16.124 5.522V15.525c-7.016-5.98-16.386-7.596-25.136-4.312a1.284 1.284 0 0 0-.834 1.188v35.35c0 .4.186.767.512 1.004.325.238.729.304 1.109.182a27.151 27.151 0 0 1 8.224-1.287z" opacity="1" data-original="#2a44e2" class=""></path><path fill="#2a44e2" d="M28.043 43.792a.753.753 0 0 1-.327-.075 24.474 24.474 0 0 0-2.687-1.113.75.75 0 0 1 .492-1.418c.966.335 1.925.732 2.85 1.182a.751.751 0 0 1-.328 1.424zM12.937 41.563a.75.75 0 0 1-.113-1.491 26.81 26.81 0 0 1 7.77-.066.75.75 0 0 1-.206 1.487 25.378 25.378 0 0 0-7.336.061.762.762 0 0 1-.115.009zM28.043 35.896a.757.757 0 0 1-.328-.075c-4.517-2.197-9.588-2.944-14.663-2.162a.75.75 0 0 1-.229-1.482c5.38-.827 10.756-.035 15.549 2.294a.75.75 0 0 1-.329 1.425zM28.043 28a.755.755 0 0 1-.328-.075 24.309 24.309 0 0 0-5.688-1.941.75.75 0 0 1 .306-1.469 25.84 25.84 0 0 1 6.039 2.06.75.75 0 0 1-.329 1.425zM12.937 25.77a.75.75 0 0 1-.113-1.49 27.456 27.456 0 0 1 4.756-.309.75.75 0 0 1 .732.768.745.745 0 0 1-.768.732 25.78 25.78 0 0 0-4.492.291.769.769 0 0 1-.115.009zM28.043 20.104a.757.757 0 0 1-.328-.075c-4.516-2.197-9.588-2.946-14.663-2.163a.75.75 0 1 1-.229-1.482c5.38-.829 10.757-.035 15.549 2.295a.75.75 0 0 1-.329 1.425z" opacity="1" data-original="#2a44e2" class=""></path></g></svg>